<?xml version="1.0" encoding="utf-8"?>
<!-- Generator: Adobe Illustrator 23.0.3, SVG Export Plug-In . SVG Version: 6.00 Build 0)  -->
<svg version="1.1" id="Capa_1" xmlns="http://www.w3.org/2000/svg" xmlns:xlink="http://www.w3.org/1999/xlink" x="0px" y="0px"
	 viewBox="0 0 1200 1200" enable-background="new 0 0 1200 1200" xml:space="preserve">
<g>
	<path fill="#BCB2AD" d="M1037.871,925.272c3.193,0,6.336,0.297,9.357,0.891c22.574,4.381,39.653,24.233,39.653,48.119
		c0,13.54-5.495,25.792-14.357,34.653c-7.525,7.55-17.525,12.624-28.664,13.985c-1.955,0.247-3.96,0.371-5.99,0.371h-18.44h-27.55
		h-27.277h-27.277H910.05h-33.218h-15.916H339.084h-15.916h-24.48h-27.549h-27.277h-27.277h-27.277h-22.995
		c-3.441,0-6.782-0.347-10-1.015c-22.277-4.629-39.01-24.356-39.01-47.995c0-13.54,5.47-25.792,14.356-34.654
		c6.337-6.361,14.406-10.965,23.441-13.069c3.589-0.841,7.351-1.287,11.213-1.287h155.866h86.807h384.282h86.807H1037.871z"/>
	<path fill="#CEB54D" d="M991.881,762.352v23.292c-21.485-6.015-51.337-9.233-92.747-6.51l-88.376,46.926v9.287h69.317v89.925
		h-86.807v-89.925h2.3v-1.221l-2.3,1.221V777.79H659.594H542.657H408.985v57.557l-0.01-0.005v0.005h0.01v89.925h-86.807v-89.925
		h71.607v-8.071l-90.666-48.142c-43.292-2.847-73.936,0.792-95.619,7.352v-0.025v-24.109v-40.474v-4.329v-5.57
		c0.004,0,0.007-0.001,0.01-0.001h93.371c10.085-9.395,59.343-31.385,298.797-31.56c0.485-0.001,0.96-0.002,1.447-0.002
		c0.487,0,0.962,0.002,1.447,0.002c239.455,0.175,288.712,22.165,298.797,31.56h90.504c0.002,0,0.005,0.001,0.007,0.001v5.57l0,0
		V762.352z M264.926,746.584c0-7.525-6.114-13.639-13.639-13.639c-7.525,0-13.639,6.114-13.639,13.639
		c0,7.55,6.114,13.639,13.639,13.639C258.812,760.223,264.926,754.134,264.926,746.584z M896.298,720.949L896.298,720.949
		c-0.606-0.426-1.138-0.96-1.505-1.625c-1.699-2.01-29.481-28.911-293.667-29.007c-264.187,0.096-291.969,26.997-293.667,29.007
		c-0.367,0.665-0.898,1.198-1.504,1.624c31.562,36.752,100.354,46.94,103.021,46.94h133.683h116.936h133.68
		C795.941,767.889,864.733,757.703,896.298,720.949z M964.604,746.584c0-7.525-6.114-13.639-13.639-13.639
		c-7.525,0-13.639,6.114-13.639,13.639c0,7.55,6.114,13.639,13.639,13.639C958.49,760.223,964.604,754.134,964.604,746.584z"/>
	<path fill="#B77F64" d="M791.535,579.753c4.084,4.628,9.109,7.624,15.272,7.624c1.337,0,2.723-0.124,4.159-0.421
		c1.609-0.322,3.144-1.138,4.604-2.327c11.04-8.911,17.401-38.861,17.401-38.861c4.951,0.569,10.025,0.841,15.124,0.742
		c3.639-0.05,7.277-0.297,10.866-0.742c13.094-1.584,25.817-5.768,36.436-13.391c2.475-1.782,4.851-3.738,7.079-5.916
		c15.123-14.678,22.846-46.436,14.233-74.257c0.396-0.173,4.084-1.708,8.564-4.48c9.728-6.039,23.119-18.045,14.332-34.851
		c-5.198-9.926-15.817-9.183-24.431-6.411c-7.203,2.302-13.02,6.039-13.02,6.039c-1.683-15.124-5.965-17.946-12.698-22.426
		c-9.01-6.039-26.634-9.628-31.807-30.396c0,0-10.644,23.763-20.346,21.881c-9.505-1.856,2.673-22.549,3.218-23.49
		c-1.238,0.817-37.005,24.951-56.659,29.307c-5.297,1.188-9.431,0.916-11.386-1.634c-2.673-3.49-1.362-8.44,1.881-13.713
		c0,0-3.218-5.099-13.663-4.852c-1.287,0-2.673,0.099-4.159,0.322c-11.287,1.534-15.495,9.208-16.485,17.797
		c-1.46,12.673,4.059,27.376,4.059,27.376c-6.163,6.683-11.807,16.336-15.668,30.198c-5.965,21.485,5.817,46.436,22.401,64.95
		c7.277,8.119,15.495,15,23.515,19.802c0,0,2.945,35.99,17.153,52.104L791.535,579.753z M831.14,518.243
		c-2.519,0.55-5.008,0.79-7.428,0.79c-15.983,0-29.072-10.452-29.703-10.963c-1.593-1.292-1.835-3.629-0.544-5.222
		c1.291-1.589,3.628-1.833,5.219-0.547c0.15,0.122,15.255,12.107,30.87,8.689c2.018-0.441,3.984,0.833,4.421,2.835
		C834.413,515.827,833.141,517.806,831.14,518.243z M891.534,446.881c8.713,2.178,14.876,7.599,13.738,12.079
		c-1.139,4.48-9.109,6.337-17.822,4.133c-8.713-2.203-14.876-7.599-13.738-12.079C874.827,446.535,882.822,444.678,891.534,446.881z
		 M867.154,413.441c1.46-5.842,5.272-9.951,8.515-9.134c3.218,0.817,4.653,6.238,3.193,12.08c-1.485,5.866-5.297,9.951-8.54,9.134
		C867.104,424.728,865.668,419.307,867.154,413.441z M802.5,399.455c1.485-5.842,5.297-9.951,8.54-9.134
		c3.218,0.817,4.654,6.238,3.168,12.079c-1.46,5.867-5.272,9.951-8.515,9.134C802.45,410.743,801.04,405.322,802.5,399.455z
		 M805.251,420.714c7.012-3.787,18.649-7.282,34.276-2.431c17.063,5.302,23.846,16.347,26.532,24.678
		c2.446,7.587-0.22,15.868-6.635,20.609c-0.665,0.491-1.438,0.728-2.205,0.728c-1.136,0-2.26-0.521-2.988-1.506
		c-1.218-1.649-0.87-3.974,0.778-5.192c3.848-2.845,5.448-7.811,3.981-12.359c-2.146-6.658-7.648-15.509-21.668-19.865
		c-10.561-3.284-20.169-2.654-28.543,1.872c-4.813,2.6-6.841,8.532-4.718,13.798c0.769,1.901-0.152,4.065-2.052,4.832
		c-1.912,0.766-4.066-0.154-4.832-2.055C793.637,435.047,797.108,425.112,805.251,420.714z M759.851,421.312
		c1.138-4.48,9.109-6.337,17.822-4.159c8.738,2.203,14.876,7.599,13.763,12.079c-1.138,4.48-9.109,6.337-17.822,4.158
		C764.876,431.188,758.738,425.792,759.851,421.312z M770.673,448.076c-0.242-2.036,1.213-3.882,3.251-4.124
		c2.033-0.237,3.875,1.211,4.121,3.243c0.093,0.755,1.465,10.771,8.69,21.213c7.327-2.042,23.386-5.558,36.384-1.626
		c13.031,3.924,25.878,17.825,31.531,24.588c15.7-3.355,23.948-11.152,24.078-11.277c1.465-1.432,3.819-1.402,5.25,0.066
		c1.431,1.468,1.402,3.819-0.068,5.251c-0.761,0.743-15.71,14.932-43.643,14.932c-6.597,0-13.916-0.792-21.946-2.738
		C775.79,487.294,770.719,448.466,770.673,448.076z M906.485,625.297c-0.817,10.371-5.891,20.124-10.644,25.173
		c-2.203,2.327-4.332,3.663-5.94,3.614c-8.639-0.272-8.094-9.183-8.094-9.183s-5.693,11.609-15.396,6.757
		c-9.728-4.876-7.772-12.698-7.772-12.698s-6.287,5.396-14.852-3.243c-4.183-4.208-4.159-8.663-2.475-13.242
		c1.782-4.827,5.446-9.728,8.069-14.58c5.124-9.455-5.594-11.336-5.594-11.336s10.619-11.163,29.629-7.376
		c5.371,1.065,11.436,3.342,18.094,7.376c5.644,3.441,9.456,7.599,11.807,12.104C906.089,613.96,906.906,619.703,906.485,625.297z
		 M757.624,607.896c2.327,4.307,5.47,8.663,7.376,12.945c2.327,5.124,2.896,10.174-1.782,14.876
		c-8.565,8.639-14.852,3.243-14.852,3.243s1.955,7.822-7.773,12.698c-9.728,4.852-15.396-6.757-15.396-6.757
		s0.544,8.911-8.094,9.183c-2.525,0.074-6.262-3.218-9.579-8.366c-4.109-6.386-7.525-15.619-7.055-24.876
		c0.198-4.133,1.163-8.292,3.218-12.178c2.351-4.505,6.139-8.663,11.782-12.104c6.683-4.059,12.747-6.312,18.119-7.376
		c19.01-3.762,29.629,7.376,29.629,7.376S752.475,598.441,757.624,607.896z"/>
	<path fill="#8AB7A8" d="M778.267,328.812c0,0-19.703-21.262,4.48-43.96c24.158-22.673,134.777,12.154,145.297,53.094
		c6.585,25.569-6.683,31.98-17.574,33.193c0,0,5.322-8.688-6.337-18.614C881.312,333.069,829.852,320.099,778.267,328.812z
		 M700.421,620.841h0.05c0.198-4.133,1.163-8.292,3.218-12.178c2.351-4.505,6.139-8.663,11.782-12.104
		c6.683-4.059,12.747-6.312,18.119-7.376c19.01-3.762,29.629,7.376,29.629,7.376c7.178-1.46,25.594-2.698,43.638-2.747
		c14.629-0.025,28.985,0.718,36.931,2.747c0,0,10.619-11.163,29.629-7.376c5.371,1.065,11.436,3.342,18.094,7.376
		c5.644,3.441,9.456,7.599,11.807,12.104c2.773,5.297,3.589,11.039,3.168,16.634l0.47,0.025
		c15.049,10.074,26.807,22.352,34.059,36.065c3.094-10.867,4.53-20.743,4.604-29.678c0.025-0.025,0-0.025,0-0.05
		c0.47-43.812-30.99-66.015-56.138-76.708c-16.659-7.104-30.52-9.183-30.52-9.183c-3.589,0.445-7.228,0.693-10.866,0.742v0.025
		c0,0,11.56,17.5,9.554,33.218c0,0-14.827-10.099-42.079,4.876c-1.46,1.188-2.995,2.005-4.604,2.327
		c-1.436,0.297-2.822,0.421-4.159,0.421c-6.163,0-11.188-2.995-15.272-7.624l-0.025-0.025
		c-13.614-14.357-43.069-14.158-43.069-14.158c-0.916-10.545,7.327-21.188,14.753-28.515c-0.916,0.222-20.916,4.951-43.342,16.634
		c-27.327,14.233-58.267,38.812-62.426,78.094c-0.025,0.074-0.025,0.124-0.025,0.173c-0.966,9.01-0.495,18.812,1.757,29.431
		l0.025,1.658h0.025C667.03,645.693,679.356,632.921,700.421,620.841z M579.01,588.49l-0.272,0.743c0,0,1.534,30.445-31.312,32.55
		c-32.847,2.128-36.807-31.733-36.807-31.733l-0.718-2.673c-17.451,4.876-44.926,21.683-47.426,78.886v2.227h24.876h139.356v-2.227
		C629.307,613.515,597.129,594.802,579.01,588.49z"/>
	<path fill="#FCE06B" d="M300.881,711.978c10.085-9.395,59.343-31.385,298.797-31.56c0.485-0.001,0.96-0.002,1.447-0.002
		c0.487,0,0.962,0.002,1.447,0.002c239.455,0.175,288.712,22.165,298.797,31.56h90.504c0.002,0,0.005,0.001,0.007,0.001v5.57l0,0
		v-7.037c0.551-0.001,1.11-0.075,1.668-0.231c1.93-0.543,46.519-13.484,52.661-48.087c7.43,2.852,15.717,3.725,24.087,2.014
		c23.391-4.752,38.49-27.599,33.713-50.99c-4.777-23.366-27.599-38.465-50.99-33.688c-23.391,4.777-38.465,27.599-33.713,50.99
		c2.16,10.579,8.038,19.428,15.967,25.537c-0.512,0.764-0.88,1.639-1.01,2.612c-3.285,24.639-34.721,36.599-42.384,39.162V228.614
		H659.653H542.599H207.5v319.48v43.044v106.683c-7.642-2.599-38.485-14.558-41.764-39.151c-0.13-0.973-0.501-1.847-1.017-2.611
		c7.927-6.11,13.8-14.959,15.949-25.539c4.777-23.391-10.297-46.213-33.688-50.99c-23.391-4.777-46.213,10.322-50.99,33.688
		c-4.777,23.391,10.322,46.237,33.713,50.99c8.37,1.711,16.658,0.839,24.086-2.014c6.119,34.589,50.12,47.539,52.024,48.082
		c0.564,0.161,1.13,0.235,1.686,0.236v1.468c0.004,0,0.007-0.001,0.01-0.001H300.881z M237.648,603.688V574.48V300.148
		c0-24.752,20.248-45.025,45.025-45.025h290.446l-0.396,44.381l167.426,1.485l0.396-45.124v-0.743h165.545h13.49
		c24.777,0,45.025,20.272,45.025,45.025V636.98c0,13.738-8.787,25.421-21.064,29.728c-3.267,1.163-6.782,1.782-10.445,1.782h-6.188
		h-16.213H687.995h-31.089h-30.198H487.351h-24.876h-38.886h-36.931h-53.54h-63.96c-0.52,0-1.015,0-1.535-0.049
		c-16.683-0.792-29.975-14.579-29.975-31.461V603.688z M899.134,779.134l-88.376,46.926v9.287h69.317v89.925h157.797
		c3.193,0,6.336,0.297,9.357,0.891l0.049-0.248v-90.569c0,0,0-34.208-55.396-49.703
		C970.396,779.629,940.545,776.411,899.134,779.134z M964.604,908.069c-15.074,0-27.277-12.228-27.277-27.277
		c0-15.074,12.203-27.277,27.277-27.277c15.05,0,27.277,12.203,27.277,27.277C991.881,895.842,979.654,908.069,964.604,908.069z
		 M795.567,835.347h-2.3l2.3-1.221V835.347z M991.881,172.475V139.43c0-21.114-13.589-38.242-30.347-38.242H805.569h-0.247
		c-0.248,24.406-0.57,49.778-0.545,71.287H991.881z M937.203,124.282c6.931,0,12.574,5.619,12.574,12.574
		c0,6.931-5.644,12.549-12.574,12.549c-6.93,0-12.549-5.619-12.549-12.549C924.654,129.901,930.273,124.282,937.203,124.282z
		 M868.515,117.302c10.792,0,19.53,8.762,19.53,19.555c0,10.767-8.738,19.53-19.53,19.53s-19.53-8.762-19.53-19.53
		C848.985,126.064,857.723,117.302,868.515,117.302z M896.298,720.949c-31.564,36.754-100.356,46.94-103.024,46.94h-133.68H542.657
		H408.975c-2.667,0-71.459-10.189-103.021-46.94c0.606-0.426,1.138-0.96,1.504-1.624c1.699-2.01,29.481-28.911,293.667-29.007
		c264.187,0.096,291.969,26.997,293.667,29.007C895.16,719.989,895.692,720.523,896.298,720.949L896.298,720.949z M793.267,835.347
		V777.79H659.594H542.657H408.985v57.557v89.925h384.282V835.347z M748.364,896.285c-24.554,0.013-87.765,0.021-151.06,0.021
		c-63.293,0-126.673-0.007-151.568-0.021c-2.729-0.001-4.948-2.224-4.948-4.953c0-2.728,2.221-4.948,4.951-4.948
		c49.79,0.027,253.512,0.027,302.621,0c2.731,0,4.953,2.22,4.953,4.948C753.312,894.061,751.093,896.284,748.364,896.285z
		 M748.364,853.68c-24.554,0.013-87.765,0.021-151.06,0.021c-63.293,0-126.673-0.007-151.568-0.021
		c-2.729-0.001-4.948-2.224-4.948-4.953c0-2.728,2.221-4.948,4.951-4.948c49.79,0.027,253.512,0.027,302.621,0
		c2.731,0,4.953,2.22,4.953,4.948C753.312,851.456,751.093,853.679,748.364,853.68z M748.364,811.075
		c-24.578,0.015-87.777,0.021-151.06,0.021c-63.281,0-126.651-0.006-151.568-0.021c-2.729-0.001-4.948-2.224-4.948-4.953
		c0-2.728,2.221-4.948,4.951-4.948c49.841,0.033,253.471,0.033,302.621,0c2.731,0,4.953,2.22,4.953,4.948
		C753.312,808.852,751.093,811.074,748.364,811.075z M510.619,590.049l-0.718-2.673c8.292-2.327,14.307-1.956,14.307-1.956
		l0.916-0.247c1.98,7.995,6.584,16.089,16.757,19.233c13.886,4.307,21.436-8.465,25.198-18.985c0,0,4.901,0.594,11.93,3.045v0.024
		l-0.272,0.743c0,0,1.534,30.445-31.312,32.55C514.579,623.911,510.619,590.049,510.619,590.049z M408.975,835.342l0.01,0.005h-0.01
		V835.342z M275.272,440.965c1.411-3.441,2.97-6.807,4.703-10c-23.218-20.297-1.238-51.138-1.238-51.138
		c-6.114-0.569-11.658,5.445-15.173,10.445c-2.45,3.49-2.599,1.015-1.856-1.51c15.05-50.594,56.04-41.782,56.04-41.782
		s0.272-4.579-3.787-9.183c-4.059-4.579-9.728-8.639-9.728-8.639c47.549-3.787,51.237,43.218,51.237,43.218
		c-10.173-7.55-40.965-5.396-44.752,6.485c-3.787,11.881,3.193,16.634,3.193,16.634c8.267-4.332,17.253-6.733,26.658-6.733
		c5.421,0,10.668,0.743,15.767,2.179c19.802,5.495,36.658,21.213,47.005,42.624c-13.886,12.252-24.381,3.441-30.767-6.163
		c-4.653-7.03-5-7.401-4.183,0.569c0.965,9.357,0.099,19.901-8.168,21.658c-8.49,1.807-13.144-9.678-15.619-20.272
		c-2.005-8.515-2.946-8.762-4.728,0c-2.549,12.5-7.995,27.129-19.431,24.604c-12.154-2.723-11.857-15.124-9.926-24.059
		c1.163-5.347-1.98-0.619-4.53,2.698C290.074,453.292,275.272,440.965,275.272,440.965z M386.931,101.188h-0.099H244.109
		c-20.223,0-36.609,17.129-36.609,38.242v33.045h179.332C386.856,150.198,386.906,125.322,386.931,101.188z M262.797,150.025
		c-6.931,0-12.574-5.619-12.574-12.549c0-6.931,5.643-12.549,12.574-12.549c6.931,0,12.55,5.619,12.55,12.549
		C275.346,144.406,269.728,150.025,262.797,150.025z M331.485,157.005c-10.792,0-19.53-8.738-19.53-19.53
		c0-10.792,8.738-19.53,19.53-19.53c10.792,0,19.53,8.738,19.53,19.53C351.015,148.267,342.277,157.005,331.485,157.005z
		 M359.035,581.98h4.951l4.406,32.946l-30.866-5.495l-31.535,2.797l8.02-29.109c1.089-0.124,2.178-0.297,3.292-0.445
		c0,0,0.52,22.946,20.396,24.951c0.916,0.099,1.881,0.148,2.871,0.148C356.832,607.772,359.084,591.287,359.035,581.98z
		 M322.178,925.272v-89.925h71.607v-8.071l-90.666-48.142c-43.292-2.847-73.936,0.792-95.619,7.352
		c-52.549,15.841-52.549,48.861-52.549,48.861v90.569l0.149,0.644c3.589-0.841,7.351-1.287,11.213-1.287H322.178z M237.648,908.069
		c-15.05,0-27.277-12.228-27.277-27.277c0-15.074,12.228-27.277,27.277-27.277c15.074,0,27.277,12.203,27.277,27.277
		C264.926,895.842,252.723,908.069,237.648,908.069z"/>
	<path fill="#CC785E" d="M991.881,880.792c0,15.05-12.228,27.277-27.277,27.277c-15.074,0-27.277-12.228-27.277-27.277
		c0-15.074,12.203-27.277,27.277-27.277C979.654,853.515,991.881,865.718,991.881,880.792z M937.203,149.406
		c6.931,0,12.574-5.619,12.574-12.549c0-6.955-5.644-12.574-12.574-12.574c-6.93,0-12.549,5.619-12.549,12.574
		C924.654,143.787,930.273,149.406,937.203,149.406z M868.515,156.386c10.792,0,19.53-8.762,19.53-19.53
		c0-10.792-8.738-19.555-19.53-19.555s-19.53,8.762-19.53,19.555C848.985,147.624,857.723,156.386,868.515,156.386z
		 M516.881,448.168c15.074-4.728,23.119-15.396,34.827-24.505c1.683,4.579,2.549,9.901,3.663,14.802
		c1.584,6.98,3.861,14.084,8.614,19.629c3.218,3.738,8.465,6.139,13.168,4.579c12.822-4.307,13.738-23.218,14.084-18.936
		c0.743,9.109,2.55,20.223,14.604,19.752c17.698-0.668,15.693-21.782,17.426-15.718c0,0-3.02,37.03,22.896,46.856
		c0,0,6.485-3.292,12.822-1.559c8.02-8.168,0.025-22.079,0.025-22.079c4.059-1.634,7.945-5.495,11.337-12.574
		c11.559-24.059-15.99-40.891-15.99-40.891s24.01-8.738,18.391-22.575c-5.644-13.836-13.564,5.891-31.164-12.846
		c-11.931-12.673-28.836-3.243-28.836-3.243c1.832-9.728-20.396-37.401-34.059-32.054c-1.362,0.52-1.559,2.45-1.931,3.862
		c-1.064,3.936-1.188,8.094-0.371,12.079c-8.317-6.906-23.985-16.065-34.381-8.144c-8.614,6.559-8.639,28.292-8.639,28.589
		c-6.064,3.02-21.312-18.737-32.253-14.307c-9.703,3.936-3.218,33.317-3.218,33.317s-21.411-11.188-28.044-1.98
		c-10.273,14.282,0.198,31.559,15.421,41.337C495.272,447.97,507.327,451.163,516.881,448.168z M600.52,513.688
		c-0.965,3.886,2.871,8.193,8.565,9.629c5.718,1.436,11.139-0.544,12.104-4.431c0.99-3.886-2.846-8.193-8.564-9.628
		C606.931,507.822,601.51,509.802,600.52,513.688z M551.46,536.485c-16.064-4.01-26.559,1.658-27.228,2.054
		c4.926,5.099,11.634,9.48,20.742,12.08c9.777,2.772,18.218,2.351,25.347,0.223C570.322,550.842,568.044,540.619,551.46,536.485z
		 M516.757,487.079c0.941-3.713-2.698-7.797-8.144-9.159c-5.421-1.361-10.569,0.52-11.51,4.208
		c-0.916,3.688,2.722,7.772,8.143,9.159C510.693,492.648,515.842,490.767,516.757,487.079z M386.658,536.634
		c6.262,0,11.337-3.119,11.337-6.955c0-3.862-5.074-6.98-11.337-6.98c-6.238,0-11.312,3.119-11.312,6.98
		C375.346,533.515,380.421,536.634,386.658,536.634z M310.718,378.861c-3.787,11.881,3.193,16.634,3.193,16.634
		c8.267-4.332,17.253-6.733,26.658-6.733c5.421,0,10.668,0.743,15.767,2.179c0,0,9.307-10.99-0.866-18.564
		C345.297,364.827,314.505,366.98,310.718,378.861z M331.485,117.945c-10.792,0-19.53,8.738-19.53,19.53
		c0,10.792,8.738,19.53,19.53,19.53c10.792,0,19.53-8.738,19.53-19.53C351.015,126.683,342.277,117.945,331.485,117.945z
		 M267.624,668.441c0.52,0.049,1.015,0.049,1.535,0.049h63.96h53.54h36.931c-13.614-81.04-59.604-86.51-59.604-86.51l4.406,32.946
		l-30.866-5.495l-31.535,2.797l8.02-29.109c-30.544,3.911-58.168,0.025-76.361-8.639v29.208c12.129,3.243,31.163,6.015,46.609,6.386
		C284.257,610.074,268.639,650.322,267.624,668.441z M299.406,522.871c-6.262,0-11.312,3.119-11.312,6.955
		c0,3.836,5.049,6.955,11.312,6.955c6.262,0,11.312-3.119,11.312-6.955C310.718,525.99,305.668,522.871,299.406,522.871z
		 M262.797,124.926c-6.931,0-12.574,5.619-12.574,12.549c0,6.931,5.643,12.549,12.574,12.549c6.931,0,12.55-5.619,12.55-12.549
		C275.346,130.545,269.728,124.926,262.797,124.926z M237.648,853.515c-15.05,0-27.277,12.203-27.277,27.277
		c0,15.05,12.228,27.277,27.277,27.277c15.074,0,27.277-12.228,27.277-27.277C264.926,865.718,252.723,853.515,237.648,853.515z
		 M184.554,505.594l-3.069,1.659l-21.386,11.559l-6.337,3.416c0,0,13.243,42.871,53.391,68.911h0.347v-43.044
		C191.361,528.366,184.554,505.594,184.554,505.594z"/>
	<path fill="#F4A68E" d="M337.698,607.624c0.916,0.099,1.881,0.148,2.871,0.148c16.262,0,18.515-16.485,18.465-25.792
		c0-3.688-0.371-6.238-0.371-6.238c22.846-6.015,42.203-22.822,51.832-46.188c0.816,0.148,18.242,2.995,20.198-19.084
		c0.911-10.134-1.746-13.645-4.95-14.446c-2.294,3.016-5.048,6.018-8.296,8.943c-10.931,9.847-25.495,16.835-38.475,16.835
		c-7.547,0-14.559-2.362-20.01-7.9c-5.484-5.567-7.584-12.952-6.088-21.081c-2.779-2.032-7.582-4.89-11.729-4.89h-0.619
		c-4.178,0-8.966,2.854-11.731,4.884c1.496,8.132-0.604,15.519-6.089,21.089c-5.451,5.536-12.463,7.897-20.01,7.898
		c-12.981,0.001-27.542-6.988-38.473-16.835c-1.338-1.206-2.567-2.427-3.745-3.654c-3.01,2.447-5.671,7.044-4.91,15.789
		c1.634,18.515,23.639,19.183,23.639,19.183c9.035,17.327,22.401,30.644,38.094,37.253v9.134
		C317.302,582.673,317.822,605.619,337.698,607.624z M299.406,536.782c-6.262,0-11.312-3.119-11.312-6.955
		c0-3.837,5.049-6.955,11.312-6.955c6.262,0,11.312,3.119,11.312,6.955C310.718,533.663,305.668,536.782,299.406,536.782z
		 M386.658,522.698c6.262,0,11.337,3.119,11.337,6.98c0,3.836-5.074,6.955-11.337,6.955c-6.238,0-11.312-3.119-11.312-6.955
		C375.346,525.817,380.421,522.698,386.658,522.698z M327.877,518.129c1.081-3.755,4.586-10.111,10.873-10.111
		c6.222,0,9.894,6.291,11.083,10.007c0.624,1.953-0.452,4.043-2.405,4.668c-0.377,0.12-0.757,0.178-1.131,0.178
		c-1.571,0-3.031-1.006-3.536-2.583c-0.554-1.679-2.304-4.844-4.01-4.844c-1.644,0-3.249,3.098-3.742,4.756
		c-0.583,1.958-2.642,3.089-4.602,2.512C328.442,522.137,327.311,520.095,327.877,518.129z M320.886,535.888
		c1.999-0.469,3.986,0.767,4.457,2.757c0.14,0.585,3.614,14.293,15.84,13.637c12.2-0.697,13.396-15.11,13.44-15.723
		c0.15-2.046,1.963-3.575,3.974-3.432c2.045,0.15,3.582,1.929,3.432,3.974c-0.544,7.443-5.514,21.742-20.421,22.595
		c-0.457,0.027-0.909,0.039-1.351,0.039c-13.882,0-20.539-12.542-22.142-19.385C317.649,538.352,318.889,536.355,320.886,535.888z
		 M891.534,446.881c8.713,2.178,14.876,7.599,13.738,12.079c-1.139,4.48-9.109,6.337-17.822,4.133
		c-8.713-2.203-14.876-7.599-13.738-12.079C874.827,446.535,882.822,444.678,891.534,446.881z M786.735,468.408
		c7.327-2.042,23.386-5.558,36.384-1.626c13.031,3.924,25.878,17.825,31.531,24.588c-9.077,1.939-20.637,2.398-34.578-0.982
		C802.998,486.249,792.804,477.178,786.735,468.408z M773.614,433.391c-8.738-2.203-14.876-7.599-13.763-12.079
		c1.138-4.48,9.109-6.337,17.822-4.159c8.738,2.203,14.876,7.599,13.763,12.079C790.297,433.713,782.327,435.569,773.614,433.391z
		 M541.881,604.406c13.886,4.307,21.436-8.465,25.198-18.985c2.376-6.659,3.242-12.426,3.242-12.426
		c24.332-2.921,45.495-16.188,58.935-35.297l4.48-0.842c20.371,19.629,41.089-11.114,35.767-31.238
		c-2.129-8.045-6.287-11.411-10.52-12.549c-6.337-1.733-12.822,1.559-12.822,1.559c-25.916-9.827-22.896-46.856-22.896-46.856
		c-1.733-6.064,0.272,15.05-17.426,15.718c-12.054,0.47-13.861-10.643-14.604-19.752c-0.347-4.282-1.262,14.629-14.084,18.936
		c-4.703,1.559-9.95-0.842-13.168-4.579c-4.753-5.545-7.03-12.648-8.614-19.629c-1.114-4.901-1.98-10.223-3.663-14.802
		c-11.708,9.109-19.752,19.777-34.827,24.505c-9.555,2.995-21.609-0.198-31.609-6.609c-0.941,3.218-3.144,8.639-3.787,12.005
		c-0.668,3.539-1.163,7.079-1.461,10.594c0,0-13.811-14.554-25.322,2.698c-11.51,17.252-2.203,53.094,23.169,41.287
		c5.841,25.47,23.218,46.534,46.337,57.426c0,0-1.535,9.728,0.916,19.604C527.104,593.168,531.708,601.262,541.881,604.406z
		 M621.188,518.886c-0.965,3.886-6.386,5.866-12.104,4.431c-5.693-1.436-9.53-5.743-8.565-9.629c0.99-3.886,6.411-5.866,12.104-4.43
		C618.342,510.693,622.178,515,621.188,518.886z M591.249,491.557c7.619-11.594,13.355-17.781,17.054-18.388
		c1.361-0.222,2.69,0.103,3.735,0.919c1.213,0.95,4.431,3.472,3.959,27.305c-0.041,2.024-1.695,3.639-3.711,3.639
		c-0.027,0-0.051,0-0.075-0.001c-2.05-0.04-3.679-1.734-3.64-3.785c0.135-6.808-0.176-14.795-0.848-19.062
		c-2.596,2.687-6.65,7.948-10.266,13.452c-1.126,1.716-3.437,2.189-5.141,1.064C590.601,495.573,590.122,493.271,591.249,491.557z
		 M547.028,483.962c1.516-1.38,3.863-1.276,5.245,0.239c1.375,1.506,1.279,3.837-0.213,5.222c-0.44,0.422-1.62,1.875-1.356,3.06
		c0.133,0.609,1.076,2.765,7.549,4.963c4.873,1.655,8.666,1.84,10.674,0.521c1.629-1.07,1.806-3.013,1.813-3.095
		c0.164-2.017,1.953-3.574,3.938-3.441c2.021,0.128,3.568,1.814,3.476,3.836c-0.024,0.569-0.382,5.651-4.977,8.793
		c-2.151,1.468-4.784,2.203-7.873,2.203c-2.782,0-5.932-0.595-9.439-1.785c-7.312-2.484-11.496-6.013-12.434-10.491
		C542.28,488.487,546.54,484.409,547.028,483.962z M516.24,466.657c7.619-11.595,13.355-17.782,17.054-18.388
		c1.371-0.226,2.693,0.103,3.735,0.92c1.214,0.949,4.431,3.471,3.959,27.304c-0.041,2.024-1.695,3.639-3.71,3.639
		c-0.027,0-0.051,0-0.075-0.001c-2.05-0.04-3.679-1.734-3.64-3.785c0.135-6.802-0.176-14.781-0.846-19.051
		c-2.613,2.715-6.715,8.031-10.268,13.441c-1.126,1.716-3.43,2.186-5.141,1.065C515.592,470.673,515.113,468.371,516.24,466.657z
		 M505.247,491.287c-5.421-1.386-9.059-5.47-8.143-9.159c0.94-3.688,6.089-5.569,11.51-4.208c5.445,1.362,9.084,5.446,8.144,9.159
		C515.842,490.767,510.693,492.648,505.247,491.287z M510.644,502.698c0,0,4.01-0.099,11.064,0.644
		c8.787,0.916,22.352,3.094,38.713,8.342c14.728,4.728,24.381,8.762,30.322,11.609c5.916,2.822,8.193,4.48,8.193,4.48
		s-9.579,17.5-28.614,23.069c-7.129,2.129-15.569,2.549-25.347-0.223c-9.109-2.599-15.817-6.98-20.742-12.08
		c-0.025,0-0.025,0-0.025,0C509.802,523.639,510.644,502.698,510.644,502.698z M271.412,452.136c1.115-3.823,2.394-7.56,3.86-11.17
		c0,0,14.802,12.327,30.718-8.366c2.55-3.317,5.693-8.045,4.53-2.698c-1.931,8.936-2.228,21.337,9.926,24.059
		c11.436,2.525,16.881-12.104,19.431-24.604c1.782-8.762,2.723-8.515,4.728,0c2.475,10.594,7.129,22.079,15.619,20.272
		c8.267-1.757,9.134-12.302,8.168-21.658c-0.817-7.97-0.47-7.599,4.183-0.569c6.386,9.604,16.881,18.416,30.767,6.163
		c2.815,5.797,5.144,12.024,6.937,18.576c-4.361-0.801-9.033-0.744-13.91,0.218c-17.275,3.41-34.569,17.519-41.194,33.046
		c-3.51-2.26-8.733-4.899-14.03-4.899h-0.619c-5.298,0-10.52,2.639-14.031,4.899c-6.625-15.525-23.919-29.635-41.191-33.045
		C280.433,451.397,275.767,451.339,271.412,452.136z M181.485,507.253l-21.386,11.559c-0.941-3.242-3.143-7.228-3.143-7.228
		c-10.173-2.847-17.995-13.243-17.995-13.243s-26.064,0.124-28.985-8.737c-2.921-8.837,22.401-5.421,22.401-5.421
		s-23.861-7.772-23.614-20.025c0.223-11.955,28.144,8.639,29.505,9.629c-1.238-1.436-26.683-30.693-16.881-38.663
		c7.525-6.163,20.668,14.084,26.782,24.604c2.03,3.49,2.079,3.292,0.594-0.57c-3.936-10.297-9.752-29.431,0.346-31.362
		c2.921-0.569,12.97,17.005,20.297,35.916l1.906,5.124c0,0,3.416-24.035,12.228-19.406c7.401,3.862,4.059,35.322-3.837,50.545
		C179.703,499.975,180.594,505.941,181.485,507.253z"/>
	<path fill="#473F30" d="M867.154,413.441c1.46-5.842,5.272-9.951,8.515-9.134c3.218,0.817,4.654,6.238,3.193,12.08
		c-1.485,5.866-5.297,9.951-8.54,9.134C867.104,424.728,865.668,419.307,867.154,413.441z M552.273,484.201
		c-1.383-1.516-3.73-1.62-5.245-0.239c-0.488,0.447-4.747,4.525-3.597,10.025c0.938,4.478,5.122,8.007,12.434,10.491
		c3.507,1.19,6.657,1.785,9.439,1.785c3.089,0,5.722-0.735,7.873-2.203c4.595-3.141,4.953-8.223,4.977-8.793
		c0.092-2.022-1.455-3.708-3.476-3.836c-1.985-0.133-3.773,1.424-3.938,3.441c-0.007,0.082-0.184,2.026-1.813,3.095
		c-2.009,1.319-5.801,1.134-10.674-0.521c-6.473-2.197-7.416-4.353-7.549-4.963c-0.263-1.186,0.916-2.638,1.356-3.06
		C553.552,488.039,553.649,485.707,552.273,484.201z M510.644,502.698c0,0-0.842,20.941,13.564,35.842c0,0,0,0,0.025,0
		c0.668-0.396,11.163-6.064,27.228-2.054c16.584,4.133,18.861,14.356,18.861,14.356c19.035-5.569,28.614-23.069,28.614-23.069
		s-2.277-1.659-8.193-4.48c0,0-15.966,8.837-41.733,0.272c-25.767-8.565-27.475-18.614-27.475-18.614l0.173-1.609
		C514.653,502.599,510.644,502.698,510.644,502.698z M712.5,397.723c-18.218-1.436-45.768,41.931-7.698,54.48
		c0,0-14.975,13.663-5.668,31.139c9.035,16.881,24.876,8.812,25.891,8.267c-1.065,0.792-16.856,12.674-1.98,25.495
		c15.396,13.267,27.45-8.985,27.45-8.985l0.347-0.297c-16.584-18.515-28.367-43.465-22.401-64.95
		c3.862-13.862,9.505-23.515,15.668-30.198c0,0-5.52-14.703-4.059-27.376C739.505,386.089,730.198,399.134,712.5,397.723z
		 M612.211,505.03c0.024,0.001,0.048,0.001,0.075,0.001c2.016,0,3.669-1.615,3.71-3.639c0.471-23.833-2.746-26.355-3.959-27.305
		c-1.044-0.816-2.374-1.141-3.735-0.919c-3.698,0.607-9.434,6.794-17.054,18.388c-1.126,1.714-0.648,4.016,1.066,5.141
		c1.704,1.125,4.015,0.653,5.141-1.064c3.616-5.504,7.67-10.765,10.266-13.452c0.672,4.268,0.984,12.254,0.848,19.062
		C608.532,503.296,610.161,504.991,612.211,505.03z M748.359,886.384c-49.109,0.027-252.831,0.027-302.621,0
		c-2.729,0-4.951,2.22-4.951,4.948c0,2.729,2.219,4.952,4.948,4.953c24.895,0.013,88.275,0.021,151.568,0.021
		c63.295,0,126.506-0.007,151.06-0.021c2.729-0.001,4.948-2.224,4.948-4.953C753.312,888.604,751.091,886.384,748.359,886.384z
		 M748.359,801.174c-49.15,0.033-252.78,0.033-302.621,0c-2.729,0-4.951,2.22-4.951,4.948c0,2.729,2.219,4.952,4.948,4.953
		c24.917,0.015,88.287,0.021,151.568,0.021c63.283,0,126.482-0.006,151.06-0.021c2.729-0.001,4.948-2.224,4.948-4.953
		C753.312,803.395,751.091,801.174,748.359,801.174z M742.836,144.65h35.113c2.05,0,3.713-1.662,3.713-3.713
		s-1.663-3.713-3.713-3.713h-31.4V82.157c0-2.051-1.663-3.713-3.713-3.713s-3.713,1.662-3.713,3.713v58.78
		C739.123,142.988,740.786,144.65,742.836,144.65z M748.359,843.779c-49.109,0.027-252.831,0.027-302.621,0
		c-2.729,0-4.951,2.22-4.951,4.948c0,2.729,2.219,4.952,4.948,4.953c24.895,0.013,88.275,0.021,151.568,0.021
		c63.295,0,126.506-0.007,151.06-0.021c2.729-0.001,4.948-2.224,4.948-4.953C753.312,846,751.091,843.779,748.359,843.779z
		 M354.01,1036.535c9.381,8.342,21.832,12.97,34.752,12.97h144.084h134.307h144.084c12.921,0,25.371-4.629,34.753-12.97
		l14.926-13.242H339.084L354.01,1036.535z M1043.861,1022.921c-1.955,0.247-3.96,0.371-5.99,0.371h-18.44h-27.55h-27.277h-27.277
		H910.05h-33.218v65.916c0,22.797,13.391,42.649,33.218,53.02v0.025c8.168,4.307,17.401,6.98,27.277,7.599
		c1.461,0.099,2.946,0.148,4.431,0.148h22.846h14.381c4.406,0,8.738-0.421,12.896-1.213c10.272-1.931,19.654-6.139,27.55-12.054
		c14.926-11.114,24.48-28.268,24.48-47.525v-65.916L1043.861,1022.921z M341.609,559.695c14.907-0.853,19.877-15.152,20.421-22.595
		c0.15-2.045-1.387-3.824-3.432-3.974c-2.011-0.143-3.824,1.386-3.974,3.432c-0.044,0.613-1.24,15.026-13.44,15.723
		c-12.226,0.656-15.7-13.052-15.84-13.637c-0.471-1.989-2.458-3.226-4.457-2.757c-1.997,0.468-3.237,2.464-2.77,4.461
		c1.603,6.843,8.26,19.385,22.142,19.385C340.7,559.734,341.152,559.722,341.609,559.695z M338.749,508.018
		c-6.287,0-9.792,6.356-10.873,10.111c-0.566,1.965,0.566,4.008,2.528,4.582c1.96,0.578,4.02-0.554,4.602-2.512
		c0.493-1.658,2.098-4.756,3.742-4.756c1.707,0,3.457,3.165,4.01,4.844c0.505,1.577,1.965,2.583,3.536,2.583
		c0.375,0,0.754-0.058,1.131-0.178c1.953-0.625,3.029-2.715,2.405-4.668C348.643,514.309,344.971,508.018,338.749,508.018z
		 M659.208,663.044c-0.842,1.757-1.584,3.589-2.302,5.445h31.089c3.911-6.411,13.292-17.352,19.53-22.772
		c-4.109-6.386-7.525-15.619-7.055-24.876h-0.05C679.356,632.921,667.03,645.693,659.208,663.044z M271.139,1023.292h-27.277
		h-27.277h-27.277h-22.995c-3.441,0-6.782-0.347-10-1.015l-0.223,1.015v65.916c0,22.797,13.391,42.649,33.218,53.02v0.025
		c8.168,4.307,17.401,6.98,27.277,7.599c1.46,0.099,2.946,0.148,4.431,0.148h22.846h14.381c4.406,0,8.738-0.421,12.896-1.213
		c10.272-1.931,19.653-6.139,27.549-12.054c14.926-11.114,24.48-28.268,24.48-47.525v-65.916h-24.48H271.139z M537.202,480.131
		c0.024,0.001,0.048,0.001,0.075,0.001c2.016,0,3.669-1.615,3.71-3.639c0.471-23.833-2.746-26.355-3.959-27.304
		c-1.042-0.817-2.364-1.146-3.735-0.92c-3.698,0.606-9.434,6.792-17.054,18.388c-1.126,1.714-0.648,4.016,1.066,5.143
		c1.711,1.122,4.015,0.651,5.141-1.065c3.553-5.41,7.655-10.727,10.268-13.441c0.67,4.27,0.981,12.249,0.846,19.051
		C533.523,478.396,535.152,480.091,537.202,480.131z M440.331,148.828c3.967,0,7.967-0.931,11.806-3.118
		c6.089-3.468,9.983-10.334,9.691-17.085c-0.256-5.951-3.614-10.844-9.212-13.422c-3.73-1.717-7.59-2.533-11.322-3.324
		c-3.285-0.695-6.389-1.351-9.217-2.568c-3.923-1.69-6.834-5.427-7.075-9.09c-0.186-2.799,1.223-5.178,4.068-6.877
		c8.937-5.338,20.723-0.911,28.439,5.839c1.542,1.351,3.887,1.193,5.238-0.349c1.351-1.543,1.194-3.889-0.35-5.239
		c-9.732-8.52-24.997-13.873-37.131-6.627c-5.248,3.133-8.042,8.141-7.672,13.743c0.423,6.433,5.064,12.63,11.55,15.422
		c3.503,1.508,7.119,2.273,10.614,3.012c3.488,0.737,6.78,1.435,9.751,2.803c3.88,1.786,4.808,4.791,4.902,6.998
		c0.174,4.042-2.214,8.187-5.946,10.313c-9.137,5.203-20.157,0.039-27.421-6.536c-1.518-1.375-3.868-1.261-5.245,0.262
		c-1.375,1.52-1.259,3.869,0.261,5.244C422.446,144.007,431.3,148.828,440.331,148.828z M902.153,412.5c0,0,5.817-3.738,13.02-6.039
		c-3.936-9.257-4.703-35.322-4.703-35.322c-30.57-25.619-74.109-28.391-108.193-27.327c-12.03,0.396-22.896,1.238-31.584,1.733
		c0,0-0.297,8.738-10,21.634c10.445-0.247,13.663,4.852,13.663,4.852c-3.243,5.272-4.555,10.223-1.881,13.713
		c1.955,2.55,6.089,2.822,11.386,1.634c19.654-4.356,55.421-28.49,56.659-29.307c-0.544,0.941-12.723,21.634-3.218,23.49
		c9.703,1.881,20.346-21.881,20.346-21.881c5.174,20.768,22.797,24.357,31.807,30.396C896.188,394.554,900.47,397.376,902.153,412.5
		z M659.653,228.614h332.228v-56.138H804.777H659.653H542.599H386.832H207.5v56.138h335.099H659.653z M541.874,140.556
		c2.05,0,3.713-1.662,3.713-3.713v-24.94h29.585v24.94c0,2.051,1.663,3.713,3.713,3.713s3.713-1.662,3.713-3.713v-57.8
		c0-2.051-1.663-3.713-3.713-3.713s-3.713,1.662-3.713,3.713v25.434h-29.585V79.044c0-2.051-1.663-3.713-3.713-3.713
		c-2.05,0-3.713,1.662-3.713,3.713v57.8C538.161,138.894,539.824,140.556,541.874,140.556z M594.294,109.05
		c0-18.86,13.747-34.205,30.646-34.205c16.896,0,30.643,15.345,30.643,34.205c0,18.862-13.747,34.206-30.643,34.206
		C608.041,143.256,594.294,127.912,594.294,109.05z M601.72,109.05c0,14.767,10.416,26.781,23.22,26.781
		c12.802,0,23.218-12.014,23.218-26.781c0-14.766-10.416-26.779-23.218-26.779C612.136,82.271,601.72,94.284,601.72,109.05z
		 M492.877,139.425c4.182,2.039,8.364,3.048,12.449,3.048c7.324,0,14.339-3.245,20.469-9.622c1.421-1.478,1.375-3.829-0.102-5.25
		c-1.477-1.418-3.829-1.373-5.25,0.104c-7.344,7.634-15.519,9.332-24.313,5.046c-8.168-3.984-13.718-14.154-13.495-24.734
		c0.189-9.158,4.54-16.263,11.931-19.495c16.287-7.122,26.215,4.445,26.655,4.97c1.296,1.577,3.631,1.806,5.214,0.514
		c1.588-1.297,1.823-3.637,0.527-5.225c-4.692-5.739-18.117-14.606-35.369-7.063c-10.01,4.375-16.133,14.148-16.384,26.145
		C474.927,121.449,482.026,134.134,492.877,139.425z M665.881,110.445c0-18.862,13.747-34.206,30.646-34.206
		c16.896,0,30.643,15.345,30.643,34.206c0,18.86-13.747,34.205-30.643,34.205C679.628,144.65,665.881,129.305,665.881,110.445z
		 M673.307,110.445c0,14.766,10.416,26.779,23.22,26.779c12.802,0,23.218-12.014,23.218-26.779
		c0-14.767-10.416-26.781-23.218-26.781C683.722,83.664,673.307,95.678,673.307,110.445z M949.456,517.104
		c4.827-14.901-9.257-22.475-9.257-22.475c18.638-6.584,4.876-26.634-4.06-31.51c-8.911-4.851-10.866-15.396-10.866-15.396
		c-4.48,2.772-8.168,4.307-8.564,4.48c8.614,27.822,0.891,59.579-14.233,74.257c-2.228,2.178-4.604,4.133-7.079,5.916
		c0,0,14.431,21.089,26.906,14.159c12.5-6.906,4.134-25.198,4.134-25.198S944.654,532.005,949.456,517.104z M797.178,443.822
		c0.766,1.901,2.92,2.821,4.832,2.055c1.9-0.767,2.821-2.931,2.052-4.832c-2.122-5.266-0.094-11.198,4.718-13.798
		c8.373-4.526,17.982-5.156,28.543-1.872c14.02,4.356,19.522,13.207,21.668,19.865c1.467,4.548-0.133,9.514-3.981,12.359
		c-1.649,1.218-1.997,3.544-0.778,5.192c0.728,0.985,1.852,1.506,2.988,1.506c0.766,0,1.54-0.237,2.204-0.728
		c6.415-4.741,9.082-13.023,6.635-20.609c-2.686-8.331-9.468-19.375-26.532-24.678c-15.627-4.851-27.264-1.356-34.276,2.431
		C797.108,425.112,793.637,435.047,797.178,443.822z M883.978,480.16c-1.431-1.468-3.785-1.499-5.25-0.066
		c-0.13,0.125-8.378,7.922-24.078,11.277c-9.077,1.939-20.637,2.398-34.579-0.982c-17.074-4.139-27.268-13.21-33.336-21.981
		c-7.225-10.442-8.597-20.458-8.69-21.213c-0.247-2.032-2.089-3.48-4.121-3.243c-2.038,0.242-3.493,2.087-3.251,4.124
		c0.046,0.39,5.117,39.218,47.648,49.53c8.03,1.946,15.349,2.738,21.946,2.738c27.934,0,42.882-14.189,43.643-14.932
		C885.38,483.979,885.409,481.628,883.978,480.16z M814.208,402.401c1.485-5.841,0.05-11.262-3.168-12.079
		c-3.242-0.817-7.054,3.292-8.54,9.134c-1.46,5.866-0.05,11.287,3.193,12.079C808.936,412.351,812.748,408.267,814.208,402.401z
		 M906.956,625.322l-0.47-0.025c-0.817,10.371-5.891,20.124-10.644,25.173l0.124,0.099c5.149,4.852,11.337,12.351,14.728,17.921
		h16.213h6.188c3.663,0,7.178-0.619,10.445-1.782l-0.148-0.47c-0.718-1.634-1.51-3.243-2.376-4.851
		C933.762,647.673,922.005,635.396,906.956,625.322z M757.624,607.896c2.327,4.307,5.47,8.663,7.376,12.945
		c10.371-1.955,23.069-3.416,34.381-3.416c14.777,0,28.911,1.782,41.931,5.05c1.782-4.827,5.446-9.728,8.069-14.58
		c5.124-9.455-5.594-11.336-5.594-11.336c-7.946-2.03-22.302-2.772-36.931-2.747c-18.045,0.05-36.46,1.287-43.638,2.747
		C763.218,596.559,752.475,598.441,757.624,607.896z M823.712,519.034c2.42,0,4.909-0.24,7.428-0.79
		c2.001-0.438,3.273-2.416,2.835-4.419c-0.438-2.003-2.403-3.277-4.421-2.835c-15.615,3.418-30.721-8.567-30.87-8.689
		c-1.591-1.286-3.928-1.042-5.219,0.547c-1.291,1.593-1.049,3.93,0.544,5.222C794.64,508.581,807.729,519.034,823.712,519.034z
		 M395.151,499.203c0.053,0.002,0.104,0.004,0.157,0.004c1.98,0,3.623-1.563,3.708-3.558c0.041-0.983,0.261-9.751-4.542-14.758
		c-2.113-2.202-4.907-3.367-8.078-3.367c-10.336,0-13.551,11.653-13.81,17.816c-0.085,2.045,1.501,3.768,3.546,3.859
		c2.043,0.099,3.778-1.495,3.872-3.54c0.007-0.108,0.662-10.71,6.391-10.71c1.16,0,1.997,0.331,2.712,1.074
		c2.224,2.307,2.55,7.64,2.487,9.316C391.51,497.387,393.101,499.118,395.151,499.203z M298.319,499.203
		c0.053,0.002,0.104,0.004,0.157,0.004c1.98,0,3.623-1.563,3.708-3.558c0.041-0.983,0.261-9.751-4.542-14.758
		c-2.113-2.202-4.907-3.367-8.078-3.367c-10.336,0-13.551,11.653-13.81,17.816c-0.085,2.045,1.501,3.768,3.546,3.859
		c2.057,0.099,3.778-1.495,3.872-3.54c0.007-0.108,0.662-10.71,6.391-10.71c1.16,0,1.997,0.331,2.712,1.074
		c2.224,2.307,2.55,7.64,2.487,9.316C294.678,497.387,296.269,499.118,298.319,499.203z"/>
	<path fill="#FFFFD2" d="M412.475,499.452c1.617-1.456,3.147-3.011,4.579-4.618c6.725-7.549,10.968-16.405,8.394-23.283
		c-0.44-1.175-1.075-2.294-1.934-3.336c-5.896-7.16-13.106-9.206-19.42-9.206c-2.241,0-4.37,0.257-6.287,0.636
		c-15.949,3.15-32.521,17.373-36.94,31.707c-2.168,7.027-1.027,12.861,3.384,17.344c3.363,3.413,7.607,5.143,12.277,5.615
		C387.962,515.464,402.023,508.87,412.475,499.452z M372.586,495.339c0.259-6.163,3.474-17.816,13.81-17.816
		c3.171,0,5.966,1.165,8.078,3.367c4.803,5.007,4.583,13.776,4.542,14.758c-0.085,1.995-1.728,3.558-3.708,3.558
		c-0.053,0-0.104-0.001-0.157-0.004c-2.05-0.085-3.64-1.815-3.556-3.864c0.063-1.676-0.263-7.009-2.487-9.316
		c-0.716-0.743-1.552-1.074-2.712-1.074c-5.729,0-6.384,10.602-6.391,10.71c-0.094,2.045-1.83,3.639-3.872,3.54
		C374.087,499.107,372.501,497.384,372.586,495.339z M283.866,459.646c-1.919-0.379-4.049-0.637-6.29-0.637
		c-6.314,0-13.524,2.046-19.42,9.206c-0.709,0.861-1.232,1.785-1.653,2.739c-3.466,7.854,2.401,18.512,10.9,26.813
		c0.586,0.572,1.182,1.137,1.791,1.685c10.454,9.417,24.507,16.01,35.938,14.859c4.673-0.471,8.921-2.201,12.285-5.616
		c4.414-4.483,5.552-10.318,3.387-17.344C316.385,477.017,299.815,462.794,283.866,459.646z M302.184,495.648
		c-0.085,1.995-1.728,3.558-3.708,3.558c-0.053,0-0.104-0.001-0.157-0.004c-2.05-0.085-3.64-1.815-3.556-3.864
		c0.063-1.676-0.263-7.009-2.487-9.316c-0.716-0.743-1.552-1.074-2.712-1.074c-5.729,0-6.384,10.602-6.391,10.71
		c-0.094,2.045-1.815,3.639-3.872,3.54c-2.045-0.091-3.631-1.814-3.546-3.859c0.259-6.163,3.474-17.816,13.81-17.816
		c3.171,0,5.966,1.165,8.078,3.367C302.445,485.897,302.225,494.665,302.184,495.648z M673.307,110.445
		c0-14.767,10.416-26.781,23.22-26.781c12.802,0,23.218,12.014,23.218,26.781c0,14.766-10.416,26.779-23.218,26.779
		C683.722,137.224,673.307,125.21,673.307,110.445z M601.72,109.05c0-14.766,10.416-26.779,23.22-26.779
		c12.802,0,23.218,12.014,23.218,26.779c0,14.767-10.416,26.781-23.218,26.781C612.136,135.831,601.72,123.817,601.72,109.05z
		 M848.094,546.535c0,0,11.56,17.5,9.554,33.218c0,0-14.827-10.099-42.079,4.876c11.04-8.911,17.401-38.861,17.401-38.861
		c4.951,0.569,10.025,0.841,15.124,0.742V546.535z M964.604,746.584c0,7.55-6.114,13.639-13.639,13.639
		c-7.525,0-13.639-6.089-13.639-13.639c0-7.525,6.114-13.639,13.639-13.639C958.49,732.945,964.604,739.059,964.604,746.584z
		 M964.604,300.148V636.98c0,13.738-8.787,25.421-21.064,29.728l-0.148-0.47c-0.718-1.634-1.51-3.243-2.376-4.851
		c3.094-10.867,4.53-20.743,4.604-29.678c0.025-0.025,0-0.025,0-0.05c0.47-43.812-30.99-66.015-56.138-76.708
		c-16.659-7.104-30.52-9.183-30.52-9.183c13.094-1.584,25.817-5.768,36.436-13.391c0,0,14.431,21.089,26.906,14.159
		c12.5-6.906,4.134-25.198,4.134-25.198s18.218,10.668,23.02-4.233c4.827-14.901-9.257-22.475-9.257-22.475
		c18.638-6.584,4.876-26.634-4.06-31.51c-8.911-4.851-10.866-15.396-10.866-15.396c9.728-6.039,23.119-18.045,14.332-34.851
		c-5.198-9.926-15.817-9.183-24.431-6.411c-3.936-9.257-4.703-35.322-4.703-35.322c10.891-1.213,24.158-7.624,17.574-33.193
		c-10.52-40.94-121.138-75.767-145.297-53.094c-24.183,22.698-4.48,43.96-4.48,43.96s-34.554,4.654-28.49,14.802
		c1.584,2.624,9.331,2.599,20.916,1.931c0,0-0.297,8.738-10,21.634c-1.287,0-2.673,0.099-4.159,0.322
		c-11.287,1.534-15.495,9.208-16.485,17.797c-0.544,0.792-9.851,13.837-27.549,12.426c-18.218-1.436-45.768,41.931-7.698,54.48
		c0,0-14.975,13.663-5.668,31.139c9.035,16.881,24.876,8.812,25.891,8.267c-1.065,0.792-16.856,12.674-1.98,25.495
		c15.396,13.267,27.45-8.985,27.45-8.985l0.347-0.297c7.277,8.119,15.495,15,23.515,19.802c0,0,2.945,35.99,17.153,52.104
		c-13.614-14.357-43.069-14.158-43.069-14.158c-0.916-10.545,7.327-21.188,14.753-28.515c-0.916,0.222-20.916,4.951-43.342,16.634
		c-27.327,14.233-58.267,38.812-62.426,78.094c-0.025,0.074-0.025,0.124-0.025,0.173c-0.966,9.01-0.495,18.812,1.757,29.431
		l0.025,1.658h0.025c-0.842,1.757-1.584,3.589-2.302,5.445h-30.198v-2.227c2.599-52.748-29.579-71.46-47.698-77.772v-0.024
		c-7.029-2.451-11.93-3.045-11.93-3.045c2.376-6.659,3.242-12.426,3.242-12.426c24.332-2.921,45.495-16.188,58.935-35.297
		l4.48-0.842c20.371,19.629,41.089-11.114,35.767-31.238c-2.129-8.045-6.287-11.411-10.52-12.549
		c8.02-8.168,0.025-22.079,0.025-22.079c4.059-1.634,7.945-5.495,11.337-12.574c11.559-24.059-15.99-40.891-15.99-40.891
		s24.01-8.738,18.391-22.575c-5.644-13.836-13.564,5.891-31.164-12.846c-11.931-12.673-28.836-3.243-28.836-3.243
		c1.832-9.728-20.396-37.401-34.059-32.054c-1.362,0.52-1.559,2.45-1.931,3.862c-1.064,3.936-1.188,8.094-0.371,12.079
		c-8.317-6.906-23.985-16.065-34.381-8.144c-8.614,6.559-8.639,28.292-8.639,28.589c-6.064,3.02-21.312-18.737-32.253-14.307
		c-9.703,3.936-3.218,33.317-3.218,33.317s-21.411-11.188-28.044-1.98c-10.273,14.282,0.198,31.559,15.421,41.337
		c-0.941,3.218-3.144,8.639-3.787,12.005c-0.668,3.539-1.163,7.079-1.461,10.594c0,0-13.811-14.554-25.322,2.698
		c-11.51,17.252-2.203,53.094,23.169,41.287c5.841,25.47,23.218,46.534,46.337,57.426c0,0-1.535,9.728,0.916,19.604l-0.916,0.247
		c0,0-6.015-0.371-14.307,1.956c-17.451,4.876-44.926,21.683-47.426,78.886v2.227h-38.886c-13.614-81.04-59.604-86.51-59.604-86.51
		h-4.951c0-3.688-0.371-6.238-0.371-6.238c22.846-6.015,42.203-22.822,51.832-46.188c0.816,0.148,18.242,2.995,20.198-19.084
		c0.911-10.134-1.746-13.645-4.95-14.446c9.028-11.867,10.567-23.955,3.505-32.532c-5.067-6.151-11.569-9.992-18.97-11.352
		c-1.793-6.552-4.122-12.779-6.937-18.576c-10.347-21.411-27.203-37.129-47.005-42.624c0,0,9.307-10.99-0.866-18.564
		c0,0-3.688-47.005-51.238-43.218c0,0,5.668,4.059,9.728,8.639c4.059,4.604,3.787,9.183,3.787,9.183s-40.99-8.812-56.04,41.782
		c-0.743,2.525-0.594,5,1.856,1.51c3.515-5,9.059-11.015,15.173-10.445c0,0-21.98,30.841,1.238,51.138
		c-1.733,3.193-3.292,6.559-4.703,10c-1.466,3.61-2.745,7.348-3.86,11.17c-7.411,1.356-13.92,5.2-18.99,11.358
		c-8.117,9.859-4.874,24.354,8.056,37.821c-3.01,2.447-5.671,7.044-4.91,15.789c1.634,18.515,23.639,19.183,23.639,19.183
		c9.035,17.327,22.401,30.644,38.094,37.253v9.134c-1.114,0.149-2.203,0.322-3.292,0.445c-30.544,3.911-58.168,0.025-76.361-8.639
		V300.148c0-24.752,20.248-45.025,45.025-45.025h290.446l-0.396,44.381l167.426,1.485l0.396-45.124v-0.743h165.545h13.49
		C944.357,255.123,964.604,275.396,964.604,300.148z M264.926,746.584c0,7.55-6.114,13.639-13.639,13.639
		c-7.525,0-13.639-6.089-13.639-13.639c0-7.525,6.114-13.639,13.639-13.639C258.812,732.945,264.926,739.059,264.926,746.584z
		 M659.653,172.475h145.124c-0.025-21.51,0.297-46.881,0.545-71.287c0.148-14.628,0.247-28.886,0.247-41.782v-0.99
		C749.233,52.97,683.144,50,615.544,50c-79.307,0-160.371,5.52-228.539,12.574c-0.025,12.277-0.05,25.322-0.074,38.614
		c-0.025,24.134-0.074,49.01-0.099,71.287h155.767H659.653z M739.123,82.157c0-2.051,1.663-3.713,3.713-3.713
		s3.713,1.662,3.713,3.713v55.067h31.4c2.05,0,3.713,1.662,3.713,3.713s-1.663,3.713-3.713,3.713h-35.113
		c-2.05,0-3.713-1.662-3.713-3.713V82.157z M696.527,76.238c16.896,0,30.643,15.345,30.643,34.206
		c0,18.86-13.747,34.205-30.643,34.205c-16.899,0-30.646-15.345-30.646-34.205C665.881,91.583,679.628,76.238,696.527,76.238z
		 M624.94,74.845c16.896,0,30.643,15.345,30.643,34.205c0,18.862-13.747,34.206-30.643,34.206
		c-16.899,0-30.646-15.345-30.646-34.206C594.294,90.19,608.041,74.845,624.94,74.845z M462.746,98.834
		c-1.351,1.542-3.696,1.701-5.238,0.349c-7.716-6.75-19.502-11.177-28.439-5.839c-2.845,1.699-4.254,4.078-4.068,6.877
		c0.242,3.663,3.152,7.4,7.075,9.09c2.828,1.217,5.932,1.873,9.217,2.568c3.732,0.79,7.593,1.606,11.322,3.324
		c5.598,2.578,8.956,7.47,9.212,13.422c0.292,6.751-3.602,13.617-9.691,17.085c-3.839,2.188-7.839,3.118-11.806,3.118
		c-9.031,0-17.885-4.821-24.274-10.6c-1.52-1.375-1.636-3.724-0.261-5.244c1.378-1.523,3.727-1.638,5.245-0.262
		c7.264,6.575,18.284,11.739,27.421,6.536c3.732-2.126,6.12-6.272,5.946-10.313c-0.094-2.207-1.022-5.212-4.902-6.998
		c-2.971-1.368-6.263-2.066-9.751-2.803c-3.495-0.738-7.112-1.504-10.614-3.012c-6.485-2.792-11.127-8.988-11.55-15.422
		c-0.37-5.602,2.424-10.61,7.672-13.743c12.135-7.246,27.399-1.893,37.131,6.627C463.94,94.944,464.097,97.29,462.746,98.834z
		 M526.435,94.005c-1.583,1.292-3.918,1.064-5.214-0.514c-0.44-0.525-10.367-12.092-26.655-4.97
		c-7.392,3.232-11.743,10.337-11.931,19.495c-0.222,10.58,5.328,20.751,13.495,24.734c8.794,4.286,16.969,2.588,24.313-5.046
		c1.421-1.477,3.773-1.522,5.25-0.104c1.477,1.421,1.523,3.772,0.102,5.25c-6.13,6.377-13.145,9.622-20.469,9.622
		c-4.085,0-8.267-1.009-12.449-3.048c-10.851-5.291-17.95-17.976-17.668-31.563c0.251-11.997,6.374-21.77,16.384-26.145
		c17.252-7.543,30.677,1.325,35.369,7.063C528.258,90.368,528.024,92.708,526.435,94.005z M538.161,136.843v-57.8
		c0-2.051,1.663-3.713,3.713-3.713c2.05,0,3.713,1.662,3.713,3.713v25.434h29.585V79.044c0-2.051,1.663-3.713,3.713-3.713
		s3.713,1.662,3.713,3.713v57.8c0,2.051-1.663,3.713-3.713,3.713s-3.713-1.662-3.713-3.713v-24.94h-29.585v24.94
		c0,2.051-1.663,3.713-3.713,3.713C539.824,140.556,538.161,138.894,538.161,136.843z M237.648,603.688
		c12.129,3.243,31.163,6.015,46.609,6.386c0,0-15.619,40.248-16.634,58.366c-16.683-0.792-29.975-14.579-29.975-31.461V603.688z
		 M549.01,523.564c-25.767-8.565-27.475-18.614-27.475-18.614l0.173-1.609c8.787,0.916,22.352,3.094,38.713,8.342
		c14.728,4.728,24.381,8.762,30.322,11.609C590.743,523.292,574.777,532.129,549.01,523.564z"/>
	<path fill="#527C6D" d="M910.693,668.49H687.995c3.911-6.411,13.292-17.352,19.53-22.772c3.316,5.149,7.054,8.441,9.579,8.366
		c8.639-0.272,8.094-9.183,8.094-9.183s5.668,11.609,15.396,6.757c9.728-4.876,7.773-12.698,7.773-12.698s6.287,5.396,14.851-3.243
		c4.678-4.703,4.109-9.752,1.782-14.876c10.371-1.955,23.069-3.416,34.381-3.416c14.777,0,28.911,1.782,41.931,5.05
		c-1.683,4.579-1.708,9.034,2.475,13.242c8.565,8.639,14.852,3.243,14.852,3.243s-1.955,7.822,7.772,12.698
		c9.703,4.852,15.396-6.757,15.396-6.757s-0.544,8.911,8.094,9.183c1.609,0.05,3.738-1.287,5.94-3.614l0.124,0.099
		C901.114,655.421,907.302,662.921,910.693,668.49z M770.693,345.544c8.688-0.495,19.555-1.337,31.584-1.733
		c34.084-1.064,77.624,1.708,108.193,27.327c0,0,5.322-8.688-6.337-18.614c-22.822-19.456-74.282-32.426-125.867-23.713
		c0,0-34.554,4.654-28.49,14.802C751.362,346.238,759.109,346.213,770.693,345.544z M429.248,463.493
		c7.062,8.577,5.523,20.665-3.505,32.532c-2.294,3.016-5.048,6.018-8.296,8.943c-10.931,9.847-25.495,16.835-38.475,16.835
		c-7.547,0-14.559-2.362-20.01-7.9c-5.484-5.567-7.584-12.952-6.088-21.081c-2.779-2.032-7.582-4.89-11.729-4.89h-0.619
		c-4.178,0-8.966,2.854-11.731,4.884c1.496,8.132-0.604,15.519-6.089,21.089c-5.451,5.536-12.463,7.897-20.01,7.898
		c-12.981,0.001-27.542-6.988-38.473-16.835c-1.338-1.206-2.567-2.427-3.745-3.654c-12.931-13.467-16.173-27.962-8.056-37.821
		c5.07-6.158,11.579-10.002,18.99-11.358c4.355-0.797,9.02-0.738,13.892,0.225c17.272,3.41,34.565,17.52,41.191,33.045
		c3.51-2.26,8.733-4.899,14.031-4.899h0.619c5.297,0,10.52,2.638,14.03,4.899c6.625-15.527,23.919-29.636,41.194-33.046
		c4.877-0.963,9.549-1.02,13.91-0.218C417.679,453.5,424.182,457.342,429.248,463.493z M320.804,491.351
		c-4.419-14.334-20.989-28.557-36.938-31.706c-1.919-0.379-4.049-0.637-6.29-0.637c-6.314,0-13.524,2.046-19.42,9.206
		c-0.709,0.861-1.232,1.785-1.653,2.739c-3.466,7.854,2.401,18.512,10.9,26.813c0.586,0.572,1.182,1.137,1.791,1.685
		c10.454,9.417,24.507,16.01,35.938,14.859c4.673-0.471,8.921-2.201,12.285-5.616C321.831,504.212,322.97,498.377,320.804,491.351z
		 M425.448,471.55c-0.44-1.175-1.075-2.294-1.934-3.336c-5.896-7.16-13.106-9.206-19.42-9.206c-2.241,0-4.37,0.257-6.287,0.636
		c-15.949,3.15-32.521,17.373-36.94,31.707c-2.168,7.027-1.027,12.861,3.384,17.344c3.363,3.413,7.607,5.143,12.277,5.615
		c11.434,1.155,25.495-5.439,35.947-14.858c1.617-1.456,3.147-3.011,4.579-4.618C423.779,487.284,428.021,478.428,425.448,471.55z"
		/>
</g>
</svg>
